<svg xmlns="http://www.w3.org/2000/svg" viewBox="0 0 122.7 38.01"><defs><style>.cls-1{fill:#ffc24a;}.cls-2{fill:#f4bd62;}.cls-3{fill:#f6820c;}.cls-4{fill:#fde068;}.cls-5{fill:#fcca3f;}.cls-6{fill:#eeab37;}.cls-7{font-size:24px;font-family:MyriadPro-Regular, Myriad Pro;}.cls-8{letter-spacing:-0.03em;}.cls-9{letter-spacing:-0.01em;}.cls-10{letter-spacing:0em;}</style></defs><title>Asset 2</title><g id="Layer_2" data-name="Layer 2"><g id="Layer_1-2" data-name="Layer 1"><path class="cls-1" d="M0,30.68l.24-.33L11.36,9.7l0-.22-4.9-9a.92.92,0,0,0-1.7.28Z"/><path class="cls-2" d="M15,16.3l3.65-3.66L15,5.82a1,1,0,0,0-1.66,0l-2,3.64v.31Z"/><polygon class="cls-3" points="0 30.68 0.11 30.57 0.49 30.42 14.73 16.54 14.91 16.06 11.36 9.44 0 30.68"/><path class="cls-4" d="M15.42,37.67l12.88-7L24.62,8.48A.88.88,0,0,0,23.13,8L0,30.68l12.81,7a2.69,2.69,0,0,0,2.61,0"/><path class="cls-5" d="M28.18,30.59l-3.65-22a.77.77,0,0,0-1.34-.48L.14,30.63l12.67,6.93a2.71,2.71,0,0,0,2.59,0Z"/><path class="cls-6" d="M15.42,37.47a2.75,2.75,0,0,1-2.61,0L.1,30.57l-.1.11,12.81,7a2.69,2.69,0,0,0,2.61,0l12.88-7,0-.18Z"/><text class="cls-7" transform="translate(31.09 27.16)"><tspan class="cls-8">F</tspan><tspan x="11.06" y="0">i</tspan><tspan class="cls-9" x="16.68" y="0">r</tspan><tspan class="cls-10" x="24.29" y="0">ebase</tspan></text></g></g></svg>