<svg xmlns="http://www.w3.org/2000/svg" viewBox="0 0 93.9 28.87"><defs><style>.cls-1{fill:#744c9e;}.cls-2{font-size:18px;font-family:MyriadPro-Regular, Myriad Pro;}.cls-3{letter-spacing:0.01em;}.cls-4{letter-spacing:0em;}.cls-5{letter-spacing:-0.01em;}</style></defs><title>Asset 1</title><g id="Layer_2" data-name="Layer 2"><g id="Layer_1-2" data-name="Layer 1"><path class="cls-1" d="M14.43,0A14.44,14.44,0,1,0,28.87,14.43,14.43,14.43,0,0,0,14.43,0ZM3.1,14.59,14.28,25.77A11.33,11.33,0,0,1,3.1,14.59ZM17,25.48,3.39,11.9A11.34,11.34,0,0,1,23.6,7.76L22,9.15a9.26,9.26,0,0,0-16.3,2.13L17.59,23.14a9.27,9.27,0,0,0,5.83-6.48H18.51V14.43h7.26A11.34,11.34,0,0,1,17,25.48Z"/><text class="cls-2" transform="translate(31.34 20.64)"><tspan class="cls-3">G</tspan><tspan class="cls-4" x="11.77" y="0">a</tspan><tspan x="20.38" y="0">ts</tspan><tspan class="cls-5" x="33.46" y="0">b</tspan><tspan x="43.58" y="0">y</tspan></text></g></g></svg>